<svg width="33" height="32" viewBox="0 0 33 32" fill="none" xmlns="http://www.w3.org/2000/svg">
<path d="M19.1667 28C18.9 28 18.6667 27.9 18.4667 27.7C18.2667 27.5 18.1667 27.2667 18.1667 27C18.1667 26.7111 18.2667 26.4722 18.4667 26.2833C18.6667 26.0944 18.9 26 19.1667 26C20.4778 26 21.5833 25.7333 22.4833 25.2C23.3833 24.6667 23.8333 24.0444 23.8333 23.3333C23.8333 22.8222 23.5056 22.3222 22.85 21.8333C22.1944 21.3444 21.3111 20.9667 20.2 20.7L21.7667 19.1333C23.1667 19.5556 24.1944 20.1389 24.85 20.8833C25.5056 21.6278 25.8333 22.4444 25.8333 23.3333C25.8333 24.8222 25.1556 25.9722 23.8 26.7833C22.4444 27.5944 20.9 28 19.1667 28ZM8.5 18.2C7.07778 17.8889 6.05556 17.4 5.43333 16.7333C4.81111 16.0667 4.5 15.3778 4.5 14.6667C4.5 13.8889 4.78889 13.1889 5.36667 12.5667C5.94444 11.9444 7.27778 11.2556 9.36667 10.5C10.8333 9.96667 11.7778 9.53333 12.2 9.2C12.6222 8.86667 12.8333 8.47778 12.8333 8.03333C12.8333 7.47778 12.5889 7 12.1 6.6C11.6111 6.2 10.8556 6 9.83333 6C9.23333 6 8.72222 6.07778 8.3 6.23333C7.87778 6.38889 7.5 6.63333 7.16667 6.96667C6.98889 7.14444 6.76111 7.25 6.48333 7.28333C6.20556 7.31667 5.95556 7.24444 5.73333 7.06667C5.48889 6.88889 5.36111 6.66667 5.35 6.4C5.33889 6.13333 5.42222 5.9 5.6 5.7C5.97778 5.21111 6.54444 4.80556 7.3 4.48333C8.05556 4.16111 8.9 4 9.83333 4C11.3444 4 12.5556 4.36111 13.4667 5.08333C14.3778 5.80556 14.8333 6.78889 14.8333 8.03333C14.8333 8.94444 14.5167 9.71667 13.8833 10.35C13.25 10.9833 12.0111 11.6444 10.1667 12.3333C8.67778 12.8889 7.69444 13.3278 7.21667 13.65C6.73889 13.9722 6.5 14.3111 6.5 14.6667C6.5 15.0222 6.8 15.3611 7.4 15.6833C8 16.0056 8.9 16.3111 10.1 16.6L8.5 18.2ZM25.0333 13.0667L20.7667 8.8L22.2667 7.3C22.6667 6.9 23.1111 6.7 23.6 6.7C24.0889 6.7 24.5333 6.9 24.9333 7.3L26.5333 8.9C26.9333 9.3 27.1333 9.74444 27.1333 10.2333C27.1333 10.7222 26.9333 11.1667 26.5333 11.5667L25.0333 13.0667ZM7.83333 26H9.23333L20.7333 14.5L19.3333 13.1L7.83333 24.6V26ZM5.83333 28V23.7333L19.3333 10.2333L23.6 14.5L10.1 28H5.83333Z" fill="white"/>
</svg>
