<svg width="33" height="32" viewBox="0 0 33 32" fill="none" xmlns="http://www.w3.org/2000/svg">
<path d="M16.3333 29.3333L22.3666 13.3333H25.1L31.3 29.3333H28.4L27.0333 25.1333H20.6333L19.0666 29.3333H16.3333ZM21.3666 22.8H26.1L23.7666 16.3333H23.7L21.3666 22.8ZM5.83331 25.3333L3.99998 23.5L10.8 16.7C9.95554 15.7222 9.20554 14.7389 8.54998 13.75C7.89442 12.7611 7.3222 11.7333 6.83331 10.6667H9.73331C10.1111 11.4 10.5278 12.0944 10.9833 12.75C11.4389 13.4056 11.9555 14.0778 12.5333 14.7667C13.5333 13.7222 14.3666 12.6389 15.0333 11.5167C15.7 10.3944 16.2666 9.22223 16.7333 8.00001H1.83331V5.33334H11.1666V2.66667H13.8333V5.33334H23.1666V8.00001H19.4C18.9111 9.53334 18.2611 11.0389 17.45 12.5167C16.6389 13.9944 15.6444 15.4 14.4666 16.7333L17.7333 20.0333L16.7333 22.7333L12.5 18.6667L5.83331 25.3333Z" fill="white"/>
</svg>
